# MagicaVoxel @ Ephtracy

# group
g ClimpUp_Ladder

# material
mtllib ClimpUp_Ladder.mtl
usemtl palette

# normals
vn -1 0 0
vn 1 0 0
vn 0 0 1
vn 0 0 -1
vn 0 -1 0
vn 0 1 0

# texcoords
vt 0.0136719 0.5
vt 0.0175781 0.5
vt 0.849609 0.5
vt 0.853516 0.5
vt 0.857422 0.5
vt 0.974609 0.5
vt 0.978516 0.5

# verts
v -3 0 -9
v -3 0 -10
v -3 1 -9
v -3 1 -10
v -3 18 -9
v -3 18 -10
v -3 19 -8
v -3 19 -9
v -3 19 -10
v -3 20 -8
v -3 20 -10
v 1 0 -9
v 1 0 -10
v 1 1 -9
v 1 1 -10
v 1 2 -9
v 1 2 -10
v 1 4 -9
v 1 4 -10
v 1 5 -9
v 1 5 -10
v 1 7 -9
v 1 7 -10
v 1 8 -9
v 1 8 -10
v 1 10 -9
v 1 10 -10
v 1 11 -9
v 1 11 -10
v 1 13 -9
v 1 13 -10
v 1 14 -9
v 1 14 -10
v 1 16 -9
v 1 16 -10
v 1 17 -9
v 1 17 -10
v 1 19 -9
v 1 19 -10
v -2 0 -9
v -2 0 -10
v -2 1 -9
v -2 1 -10
v -2 2 -9
v -2 2 -10
v -2 4 -9
v -2 4 -10
v -2 5 -9
v -2 5 -10
v -2 7 -9
v -2 7 -10
v -2 8 -9
v -2 8 -10
v -2 10 -9
v -2 10 -10
v -2 11 -9
v -2 11 -10
v -2 13 -9
v -2 13 -10
v -2 14 -9
v -2 14 -10
v -2 16 -9
v -2 16 -10
v -2 17 -9
v -2 17 -10
v -2 18 -9
v -2 18 -10
v -2 19 -9
v -2 19 -10
v 2 0 -9
v 2 0 -10
v 2 1 -9
v 2 1 -10
v 2 19 -8
v 2 19 -9
v 2 19 -10
v 2 20 -8
v 2 20 -10
v -3 19 -8
v -3 20 -8
v -2 19 -8
v -2 20 -8
v 2 19 -8
v 2 20 -8
v -3 0 -9
v -3 1 -9
v -3 18 -9
v -3 19 -9
v -2 0 -9
v -2 1 -9
v -2 2 -9
v -2 4 -9
v -2 5 -9
v -2 7 -9
v -2 8 -9
v -2 10 -9
v -2 11 -9
v -2 13 -9
v -2 14 -9
v -2 16 -9
v -2 17 -9
v -2 18 -9
v -2 19 -9
v -1 1 -9
v -1 2 -9
v -1 4 -9
v -1 5 -9
v -1 7 -9
v -1 8 -9
v -1 10 -9
v -1 11 -9
v -1 13 -9
v -1 14 -9
v -1 16 -9
v -1 17 -9
v 1 0 -9
v 1 1 -9
v 1 2 -9
v 1 4 -9
v 1 5 -9
v 1 7 -9
v 1 8 -9
v 1 10 -9
v 1 11 -9
v 1 13 -9
v 1 14 -9
v 1 16 -9
v 1 17 -9
v 1 19 -9
v 2 0 -9
v 2 1 -9
v 2 19 -9
v -3 0 -10
v -3 1 -10
v -3 18 -10
v -3 19 -10
v -3 20 -10
v -2 0 -10
v -2 1 -10
v -2 2 -10
v -2 4 -10
v -2 5 -10
v -2 7 -10
v -2 8 -10
v -2 10 -10
v -2 11 -10
v -2 13 -10
v -2 14 -10
v -2 16 -10
v -2 17 -10
v -2 18 -10
v -2 19 -10
v -2 20 -10
v -1 1 -10
v -1 2 -10
v -1 4 -10
v -1 5 -10
v -1 7 -10
v -1 8 -10
v -1 10 -10
v -1 11 -10
v -1 13 -10
v -1 14 -10
v -1 16 -10
v -1 17 -10
v 1 0 -10
v 1 1 -10
v 1 2 -10
v 1 4 -10
v 1 5 -10
v 1 7 -10
v 1 8 -10
v 1 10 -10
v 1 11 -10
v 1 13 -10
v 1 14 -10
v 1 16 -10
v 1 17 -10
v 1 19 -10
v 2 0 -10
v 2 1 -10
v 2 19 -10
v 2 20 -10
v -3 0 -9
v -2 0 -9
v 1 0 -9
v 2 0 -9
v -3 0 -10
v -2 0 -10
v 1 0 -10
v 2 0 -10
v -2 1 -9
v -1 1 -9
v 1 1 -9
v -2 1 -10
v -1 1 -10
v 1 1 -10
v -2 4 -9
v -1 4 -9
v 1 4 -9
v -2 4 -10
v -1 4 -10
v 1 4 -10
v -2 7 -9
v -1 7 -9
v 1 7 -9
v -2 7 -10
v -1 7 -10
v 1 7 -10
v -2 10 -9
v -1 10 -9
v 1 10 -9
v -2 10 -10
v -1 10 -10
v 1 10 -10
v -2 13 -9
v -1 13 -9
v 1 13 -9
v -2 13 -10
v -1 13 -10
v 1 13 -10
v -2 16 -9
v -1 16 -9
v 1 16 -9
v -2 16 -10
v -1 16 -10
v 1 16 -10
v -3 19 -8
v -2 19 -8
v 2 19 -8
v -3 19 -9
v -2 19 -9
v 1 19 -9
v 2 19 -9
v -2 19 -10
v 1 19 -10
v -2 2 -9
v -1 2 -9
v 1 2 -9
v -2 2 -10
v -1 2 -10
v 1 2 -10
v -2 5 -9
v -1 5 -9
v 1 5 -9
v -2 5 -10
v -1 5 -10
v 1 5 -10
v -2 8 -9
v -1 8 -9
v 1 8 -9
v -2 8 -10
v -1 8 -10
v 1 8 -10
v -2 11 -9
v -1 11 -9
v 1 11 -9
v -2 11 -10
v -1 11 -10
v 1 11 -10
v -2 14 -9
v -1 14 -9
v 1 14 -9
v -2 14 -10
v -1 14 -10
v 1 14 -10
v -2 17 -9
v -1 17 -9
v 1 17 -9
v -2 17 -10
v -1 17 -10
v 1 17 -10
v -3 20 -8
v -2 20 -8
v 2 20 -8
v -3 20 -10
v -2 20 -10
v 2 20 -10

# faces
f 3/1/1 2/1/1 1/1/1
f 4/1/1 2/1/1 3/1/1
f 5/5/1 4/5/1 3/5/1
f 6/5/1 4/5/1 5/5/1
f 8/4/1 6/4/1 5/4/1
f 9/4/1 6/4/1 8/4/1
f 10/1/1 8/1/1 7/1/1
f 10/1/1 9/1/1 8/1/1
f 11/1/1 9/1/1 10/1/1
f 14/2/1 13/2/1 12/2/1
f 15/2/1 13/2/1 14/2/1
f 18/3/1 17/3/1 16/3/1
f 19/3/1 17/3/1 18/3/1
f 22/3/1 21/3/1 20/3/1
f 23/3/1 21/3/1 22/3/1
f 26/3/1 25/3/1 24/3/1
f 27/3/1 25/3/1 26/3/1
f 30/3/1 29/3/1 28/3/1
f 31/3/1 29/3/1 30/3/1
f 34/3/1 33/3/1 32/3/1
f 35/3/1 33/3/1 34/3/1
f 38/3/1 37/3/1 36/3/1
f 39/3/1 37/3/1 38/3/1
f 40/1/2 41/1/2 42/1/2
f 42/1/2 41/1/2 43/1/2
f 44/5/2 45/5/2 46/5/2
f 46/5/2 45/5/2 47/5/2
f 48/5/2 49/5/2 50/5/2
f 50/5/2 49/5/2 51/5/2
f 52/5/2 53/5/2 54/5/2
f 54/5/2 53/5/2 55/5/2
f 56/5/2 57/5/2 58/5/2
f 58/5/2 57/5/2 59/5/2
f 60/5/2 61/5/2 62/5/2
f 62/5/2 61/5/2 63/5/2
f 64/5/2 65/5/2 66/5/2
f 66/5/2 65/5/2 67/5/2
f 66/4/2 67/4/2 68/4/2
f 68/4/2 67/4/2 69/4/2
f 70/2/2 71/2/2 72/2/2
f 72/2/2 71/2/2 73/2/2
f 72/3/2 73/3/2 75/3/2
f 75/3/2 73/3/2 76/3/2
f 74/2/2 75/2/2 77/2/2
f 75/2/2 76/2/2 77/2/2
f 77/2/2 76/2/2 78/2/2
f 81/1/3 80/1/3 79/1/3
f 82/1/3 80/1/3 81/1/3
f 83/2/3 82/2/3 81/2/3
f 84/2/3 82/2/3 83/2/3
f 89/1/3 86/1/3 85/1/3
f 90/5/3 87/5/3 86/5/3
f 90/1/3 86/1/3 89/1/3
f 91/5/3 87/5/3 90/5/3
f 92/5/3 87/5/3 91/5/3
f 93/5/3 87/5/3 92/5/3
f 94/5/3 87/5/3 93/5/3
f 95/5/3 87/5/3 94/5/3
f 96/5/3 87/5/3 95/5/3
f 97/5/3 87/5/3 96/5/3
f 98/5/3 87/5/3 97/5/3
f 99/5/3 87/5/3 98/5/3
f 100/5/3 87/5/3 99/5/3
f 101/5/3 87/5/3 100/5/3
f 102/4/3 88/4/3 87/4/3
f 102/5/3 87/5/3 101/5/3
f 103/4/3 88/4/3 102/4/3
f 104/7/3 91/7/3 90/7/3
f 105/7/3 91/7/3 104/7/3
f 106/7/3 93/7/3 92/7/3
f 107/7/3 93/7/3 106/7/3
f 108/7/3 95/7/3 94/7/3
f 109/7/3 95/7/3 108/7/3
f 110/7/3 97/7/3 96/7/3
f 111/7/3 97/7/3 110/7/3
f 112/7/3 99/7/3 98/7/3
f 113/7/3 99/7/3 112/7/3
f 114/7/3 101/7/3 100/7/3
f 115/7/3 101/7/3 114/7/3
f 117/6/3 105/6/3 104/6/3
f 118/6/3 105/6/3 117/6/3
f 119/6/3 107/6/3 106/6/3
f 120/6/3 107/6/3 119/6/3
f 121/6/3 109/6/3 108/6/3
f 122/6/3 109/6/3 121/6/3
f 123/6/3 111/6/3 110/6/3
f 124/6/3 111/6/3 123/6/3
f 125/6/3 113/6/3 112/6/3
f 126/6/3 113/6/3 125/6/3
f 127/6/3 115/6/3 114/6/3
f 128/6/3 115/6/3 127/6/3
f 130/2/3 117/2/3 116/2/3
f 131/3/3 124/3/3 123/3/3
f 131/2/3 117/2/3 130/2/3
f 131/3/3 122/3/3 121/3/3
f 131/3/3 127/3/3 126/3/3
f 131/3/3 120/3/3 119/3/3
f 131/3/3 125/3/3 124/3/3
f 131/3/3 128/3/3 127/3/3
f 131/3/3 123/3/3 122/3/3
f 131/3/3 118/3/3 117/3/3
f 131/3/3 121/3/3 120/3/3
f 131/3/3 126/3/3 125/3/3
f 131/3/3 119/3/3 118/3/3
f 131/3/3 129/3/3 128/3/3
f 132/3/3 129/3/3 131/3/3
f 133/1/4 134/1/4 138/1/4
f 134/5/4 135/5/4 139/5/4
f 138/1/4 134/1/4 139/1/4
f 139/5/4 135/5/4 140/5/4
f 140/5/4 135/5/4 141/5/4
f 141/5/4 135/5/4 142/5/4
f 142/5/4 135/5/4 143/5/4
f 143/5/4 135/5/4 144/5/4
f 144/5/4 135/5/4 145/5/4
f 145/5/4 135/5/4 146/5/4
f 146/5/4 135/5/4 147/5/4
f 147/5/4 135/5/4 148/5/4
f 148/5/4 135/5/4 149/5/4
f 149/5/4 135/5/4 150/5/4
f 135/4/4 136/4/4 151/4/4
f 150/5/4 135/5/4 151/5/4
f 136/1/4 137/1/4 152/1/4
f 151/4/4 136/4/4 152/4/4
f 152/1/4 137/1/4 153/1/4
f 139/7/4 140/7/4 154/7/4
f 154/7/4 140/7/4 155/7/4
f 141/7/4 142/7/4 156/7/4
f 156/7/4 142/7/4 157/7/4
f 143/7/4 144/7/4 158/7/4
f 158/7/4 144/7/4 159/7/4
f 145/7/4 146/7/4 160/7/4
f 160/7/4 146/7/4 161/7/4
f 147/7/4 148/7/4 162/7/4
f 162/7/4 148/7/4 163/7/4
f 149/7/4 150/7/4 164/7/4
f 164/7/4 150/7/4 165/7/4
f 154/6/4 155/6/4 167/6/4
f 167/6/4 155/6/4 168/6/4
f 156/6/4 157/6/4 169/6/4
f 169/6/4 157/6/4 170/6/4
f 158/6/4 159/6/4 171/6/4
f 171/6/4 159/6/4 172/6/4
f 160/6/4 161/6/4 173/6/4
f 173/6/4 161/6/4 174/6/4
f 162/6/4 163/6/4 175/6/4
f 175/6/4 163/6/4 176/6/4
f 164/6/4 165/6/4 177/6/4
f 177/6/4 165/6/4 178/6/4
f 152/2/4 153/2/4 179/2/4
f 166/2/4 167/2/4 180/2/4
f 173/3/4 174/3/4 181/3/4
f 180/2/4 167/2/4 181/2/4
f 177/3/4 178/3/4 181/3/4
f 171/3/4 172/3/4 181/3/4
f 169/3/4 170/3/4 181/3/4
f 176/3/4 177/3/4 181/3/4
f 174/3/4 175/3/4 181/3/4
f 167/3/4 168/3/4 181/3/4
f 172/3/4 173/3/4 181/3/4
f 175/3/4 176/3/4 181/3/4
f 170/3/4 171/3/4 181/3/4
f 178/3/4 179/3/4 181/3/4
f 168/3/4 169/3/4 181/3/4
f 179/2/4 153/2/4 182/2/4
f 181/3/4 179/3/4 182/3/4
f 182/2/4 153/2/4 183/2/4
f 188/1/5 185/1/5 184/1/5
f 189/1/5 185/1/5 188/1/5
f 190/2/5 187/2/5 186/2/5
f 191/2/5 187/2/5 190/2/5
f 195/7/5 193/7/5 192/7/5
f 196/6/5 194/6/5 193/6/5
f 196/7/5 193/7/5 195/7/5
f 197/6/5 194/6/5 196/6/5
f 201/7/5 199/7/5 198/7/5
f 202/6/5 200/6/5 199/6/5
f 202/7/5 199/7/5 201/7/5
f 203/6/5 200/6/5 202/6/5
f 207/7/5 205/7/5 204/7/5
f 208/6/5 206/6/5 205/6/5
f 208/7/5 205/7/5 207/7/5
f 209/6/5 206/6/5 208/6/5
f 213/7/5 211/7/5 210/7/5
f 214/6/5 212/6/5 211/6/5
f 214/7/5 211/7/5 213/7/5
f 215/6/5 212/6/5 214/6/5
f 219/7/5 217/7/5 216/7/5
f 220/6/5 218/6/5 217/6/5
f 220/7/5 217/7/5 219/7/5
f 221/6/5 218/6/5 220/6/5
f 225/7/5 223/7/5 222/7/5
f 226/6/5 224/6/5 223/6/5
f 226/7/5 223/7/5 225/7/5
f 227/6/5 224/6/5 226/6/5
f 231/1/5 229/1/5 228/1/5
f 232/2/5 230/2/5 229/2/5
f 232/1/5 229/1/5 231/1/5
f 233/2/5 230/2/5 232/2/5
f 234/2/5 230/2/5 233/2/5
f 235/2/5 233/2/5 232/2/5
f 236/2/5 233/2/5 235/2/5
f 237/7/6 238/7/6 240/7/6
f 238/6/6 239/6/6 241/6/6
f 240/7/6 238/7/6 241/7/6
f 241/6/6 239/6/6 242/6/6
f 243/7/6 244/7/6 246/7/6
f 244/6/6 245/6/6 247/6/6
f 246/7/6 244/7/6 247/7/6
f 247/6/6 245/6/6 248/6/6
f 249/7/6 250/7/6 252/7/6
f 250/6/6 251/6/6 253/6/6
f 252/7/6 250/7/6 253/7/6
f 253/6/6 251/6/6 254/6/6
f 255/7/6 256/7/6 258/7/6
f 256/6/6 257/6/6 259/6/6
f 258/7/6 256/7/6 259/7/6
f 259/6/6 257/6/6 260/6/6
f 261/7/6 262/7/6 264/7/6
f 262/6/6 263/6/6 265/6/6
f 264/7/6 262/7/6 265/7/6
f 265/6/6 263/6/6 266/6/6
f 267/7/6 268/7/6 270/7/6
f 268/6/6 269/6/6 271/6/6
f 270/7/6 268/7/6 271/7/6
f 271/6/6 269/6/6 272/6/6
f 273/1/6 274/1/6 276/1/6
f 274/2/6 275/2/6 277/2/6
f 276/1/6 274/1/6 277/1/6
f 277/2/6 275/2/6 278/2/6
