# MagicaVoxel @ Ephtracy

# group
g ClimpUp_Player

# material
mtllib ClimpUp_Player.mtl
usemtl palette

# normals
vn -1 0 0
vn 1 0 0
vn 0 0 1
vn 0 0 -1
vn 0 -1 0
vn 0 1 0

# texcoords
vt 0.0332031 0.5
vt 0.0371094 0.5
vt 0.0683594 0.5
vt 0.669922 0.5
vt 0.673828 0.5
vt 0.869141 0.5
vt 0.974609 0.5
vt 0.978516 0.5
vt 0.986328 0.5
vt 0.990234 0.5

# verts
v -4 7 -0
v -4 7 -1
v -4 8 1
v -4 8 -0
v -4 8 -1
v -4 8 -2
v -4 9 -1
v -4 9 -2
v -4 10 1
v -4 10 -1
v -3 3 1
v -3 3 -0
v -3 4 1
v -3 4 -0
v -3 5 1
v -3 5 -0
v -3 6 2
v -3 6 1
v -3 6 -0
v -3 7 3
v -3 7 2
v -3 7 1
v -3 7 -0
v -3 7 -1
v -3 7 -2
v -3 8 1
v -3 8 -0
v -3 8 -1
v -3 8 -2
v -3 9 3
v -3 9 2
v -3 9 -1
v -3 9 -2
v -3 10 2
v -3 10 1
v -3 10 -0
v -3 10 -1
v -3 10 -2
v -3 11 -0
v -3 11 -1
v -2 0 1
v -2 0 -0
v -2 1 1
v -2 1 -0
v -2 2 2
v -2 2 1
v -2 2 -0
v -2 2 -1
v -2 3 2
v -2 3 1
v -2 3 -0
v -2 3 -1
v -2 4 2
v -2 4 1
v -2 4 -0
v -2 4 -1
v -2 5 1
v -2 5 -0
v -2 5 -1
v -2 6 2
v -2 6 1
v -2 6 -0
v -2 6 -1
v -2 6 -2
v -2 7 1
v -2 7 -0
v -2 7 -1
v -2 7 -2
v -2 7 -3
v -2 9 3
v -2 9 2
v -2 10 3
v -2 10 2
v -2 10 1
v -2 10 -0
v -2 10 -2
v -2 10 -3
v -2 11 1
v -2 11 -0
v -2 11 -1
v -2 12 -0
v -2 12 -1
v -1 10 2
v -1 10 1
v -1 10 -1
v -1 10 -2
v -1 11 2
v -1 11 1
v -1 11 -1
v -1 11 -2
v 0 11 1
v 0 11 -0
v 0 12 1
v 0 12 -0
v 1 0 1
v 1 0 -0
v 1 1 1
v 1 1 -0
v 1 2 1
v 1 2 -0
v 1 8 3
v 1 8 2
v 1 9 3
v 1 9 2
v 2 7 3
v 2 7 2
v 2 8 3
v 2 8 2
v -2 7 3
v -2 7 2
v -2 8 3
v -2 8 2
v -1 0 1
v -1 0 -0
v -1 1 1
v -1 1 -0
v -1 2 1
v -1 2 -0
v 0 8 3
v 0 8 2
v 0 9 3
v 0 9 2
v 1 10 2
v 1 10 1
v 1 11 2
v 1 11 1
v 1 11 -0
v 1 12 1
v 1 12 -0
v 2 0 1
v 2 0 -0
v 2 1 1
v 2 1 -0
v 2 2 2
v 2 2 1
v 2 2 -0
v 2 2 -1
v 2 3 2
v 2 3 1
v 2 3 -0
v 2 3 -1
v 2 4 2
v 2 4 1
v 2 4 -0
v 2 4 -1
v 2 5 1
v 2 5 -0
v 2 6 2
v 2 6 1
v 2 6 -0
v 2 6 -1
v 2 6 -2
v 2 7 1
v 2 7 -0
v 2 7 -1
v 2 7 -2
v 2 7 -3
v 2 9 3
v 2 9 2
v 2 10 3
v 2 10 2
v 2 10 1
v 2 10 -0
v 2 10 -1
v 2 10 -2
v 2 10 -3
v 2 11 1
v 2 11 -0
v 2 11 -1
v 2 11 -2
v 2 12 -0
v 2 12 -1
v 3 3 1
v 3 3 -0
v 3 4 1
v 3 4 -0
v 3 5 1
v 3 5 -0
v 3 6 2
v 3 6 1
v 3 6 -0
v 3 7 3
v 3 7 2
v 3 7 1
v 3 7 -0
v 3 7 -1
v 3 7 -2
v 3 8 1
v 3 8 -0
v 3 8 -1
v 3 8 -2
v 3 9 3
v 3 9 2
v 3 9 -1
v 3 9 -2
v 3 10 2
v 3 10 1
v 3 10 -0
v 3 10 -1
v 3 10 -2
v 3 11 -0
v 3 11 -1
v 4 7 -0
v 4 7 -1
v 4 8 1
v 4 8 -0
v 4 8 -1
v 4 8 -2
v 4 9 -1
v 4 9 -2
v 4 10 1
v 4 10 -1
v -3 7 3
v -3 9 3
v -2 7 3
v -2 8 3
v -2 9 3
v -2 10 3
v 0 8 3
v 0 9 3
v 1 8 3
v 1 9 3
v 2 7 3
v 2 8 3
v 2 9 3
v 2 10 3
v 3 7 3
v 3 9 3
v -3 6 2
v -3 7 2
v -3 9 2
v -3 10 2
v -2 2 2
v -2 3 2
v -2 4 2
v -2 6 2
v -2 7 2
v -2 8 2
v -2 9 2
v -2 10 2
v -1 4 2
v -1 5 2
v -1 6 2
v -1 7 2
v -1 8 2
v -1 10 2
v -1 11 2
v 0 3 2
v 0 4 2
v 0 5 2
v 0 6 2
v 0 7 2
v 0 8 2
v 0 9 2
v 1 3 2
v 1 4 2
v 1 7 2
v 1 8 2
v 1 9 2
v 1 10 2
v 1 11 2
v 2 2 2
v 2 3 2
v 2 4 2
v 2 6 2
v 2 7 2
v 2 8 2
v 2 9 2
v 2 10 2
v 3 6 2
v 3 7 2
v 3 9 2
v 3 10 2
v -4 8 1
v -4 10 1
v -3 3 1
v -3 4 1
v -3 5 1
v -3 6 1
v -3 8 1
v -3 10 1
v -2 0 1
v -2 1 1
v -2 2 1
v -2 3 1
v -2 4 1
v -2 5 1
v -2 6 1
v -2 10 1
v -2 11 1
v -1 0 1
v -1 1 1
v -1 2 1
v -1 10 1
v -1 11 1
v 0 11 1
v 0 12 1
v 1 0 1
v 1 1 1
v 1 2 1
v 1 10 1
v 1 11 1
v 1 12 1
v 2 0 1
v 2 1 1
v 2 2 1
v 2 3 1
v 2 4 1
v 2 5 1
v 2 6 1
v 2 10 1
v 2 11 1
v 3 3 1
v 3 4 1
v 3 5 1
v 3 6 1
v 3 8 1
v 3 10 1
v 4 8 1
v 4 10 1
v -4 7 -0
v -4 8 -0
v -3 7 -0
v -3 8 -0
v -3 10 -0
v -3 11 -0
v -2 10 -0
v -2 11 -0
v -2 12 -0
v 0 11 -0
v 0 12 -0
v 1 11 -0
v 1 12 -0
v 2 10 -0
v 2 11 -0
v 2 12 -0
v 3 7 -0
v 3 8 -0
v 3 10 -0
v 3 11 -0
v 4 7 -0
v 4 8 -0
v -3 6 1
v -3 7 1
v -2 6 1
v -2 7 1
v 2 6 1
v 2 7 1
v 3 6 1
v 3 7 1
v -3 3 -0
v -3 4 -0
v -3 5 -0
v -3 6 -0
v -2 0 -0
v -2 1 -0
v -2 2 -0
v -2 3 -0
v -2 4 -0
v -2 5 -0
v -2 6 -0
v -1 0 -0
v -1 1 -0
v -1 2 -0
v 1 0 -0
v 1 1 -0
v 1 2 -0
v 2 0 -0
v 2 1 -0
v 2 2 -0
v 2 3 -0
v 2 4 -0
v 2 5 -0
v 2 6 -0
v 3 3 -0
v 3 4 -0
v 3 5 -0
v 3 6 -0
v -4 7 -1
v -4 8 -1
v -4 9 -1
v -4 10 -1
v -3 7 -1
v -3 8 -1
v -3 9 -1
v -3 10 -1
v -3 11 -1
v -2 2 -1
v -2 3 -1
v -2 4 -1
v -2 5 -1
v -2 6 -1
v -2 11 -1
v -2 12 -1
v -1 4 -1
v -1 5 -1
v -1 6 -1
v -1 10 -1
v -1 11 -1
v 1 4 -1
v 1 5 -1
v 2 2 -1
v 2 3 -1
v 2 4 -1
v 2 6 -1
v 2 10 -1
v 2 11 -1
v 2 12 -1
v 3 7 -1
v 3 8 -1
v 3 9 -1
v 3 10 -1
v 3 11 -1
v 4 7 -1
v 4 8 -1
v 4 9 -1
v 4 10 -1
v -4 8 -2
v -4 9 -2
v -3 7 -2
v -3 8 -2
v -3 9 -2
v -3 10 -2
v -2 6 -2
v -2 7 -2
v -2 10 -2
v -1 10 -2
v -1 11 -2
v 2 6 -2
v 2 7 -2
v 2 10 -2
v 2 11 -2
v 3 7 -2
v 3 8 -2
v 3 9 -2
v 3 10 -2
v 4 8 -2
v 4 9 -2
v -2 7 -3
v -2 10 -3
v 2 7 -3
v 2 10 -3
v -2 0 1
v -1 0 1
v 1 0 1
v 2 0 1
v -2 0 -0
v -1 0 -0
v 1 0 -0
v 2 0 -0
v -2 2 2
v 2 2 2
v -2 2 1
v -1 2 1
v 1 2 1
v 2 2 1
v -2 2 -0
v -1 2 -0
v 1 2 -0
v 2 2 -0
v -2 2 -1
v 2 2 -1
v -3 3 1
v -2 3 1
v 2 3 1
v 3 3 1
v -3 3 -0
v -2 3 -0
v 2 3 -0
v 3 3 -0
v -3 6 2
v -2 6 2
v 2 6 2
v 3 6 2
v -3 6 1
v -2 6 1
v 2 6 1
v 3 6 1
v -2 6 -1
v -1 6 -1
v 2 6 -1
v -2 6 -2
v 2 6 -2
v -3 7 3
v -2 7 3
v 2 7 3
v 3 7 3
v -3 7 2
v -2 7 2
v 2 7 2
v 3 7 2
v -3 7 1
v -2 7 1
v 2 7 1
v 3 7 1
v -4 7 -0
v -3 7 -0
v -2 7 -0
v 2 7 -0
v 3 7 -0
v 4 7 -0
v -4 7 -1
v -3 7 -1
v -2 7 -1
v 2 7 -1
v 3 7 -1
v 4 7 -1
v -3 7 -2
v -2 7 -2
v 2 7 -2
v 3 7 -2
v -2 7 -3
v 2 7 -3
v -2 8 3
v 0 8 3
v 1 8 3
v 2 8 3
v -2 8 2
v -1 8 2
v 0 8 2
v 1 8 2
v 2 8 2
v -4 8 1
v -3 8 1
v 3 8 1
v 4 8 1
v -4 8 -0
v -3 8 -0
v 3 8 -0
v 4 8 -0
v -4 8 -1
v -3 8 -1
v 3 8 -1
v 4 8 -1
v -4 8 -2
v -3 8 -2
v 3 8 -2
v 4 8 -2
v 0 9 3
v 1 9 3
v 0 9 2
v 1 9 2
v -3 6 1
v -2 6 1
v 2 6 1
v 3 6 1
v -3 6 -0
v -2 6 -0
v 2 6 -0
v 3 6 -0
v -3 9 3
v -2 9 3
v 2 9 3
v 3 9 3
v -3 9 2
v -2 9 2
v 2 9 2
v 3 9 2
v -4 9 -1
v -3 9 -1
v 3 9 -1
v 4 9 -1
v -4 9 -2
v -3 9 -2
v 3 9 -2
v 4 9 -2
v -2 10 3
v 2 10 3
v -3 10 2
v -2 10 2
v -1 10 2
v 1 10 2
v 2 10 2
v 3 10 2
v -4 10 1
v -3 10 1
v -2 10 1
v -1 10 1
v 1 10 1
v 2 10 1
v 3 10 1
v 4 10 1
v -3 10 -0
v -2 10 -0
v 2 10 -0
v 3 10 -0
v -4 10 -1
v -3 10 -1
v -1 10 -1
v 2 10 -1
v 3 10 -1
v 4 10 -1
v -3 10 -2
v -2 10 -2
v -1 10 -2
v 2 10 -2
v 3 10 -2
v -2 10 -3
v 2 10 -3
v -1 11 2
v 1 11 2
v -2 11 1
v -1 11 1
v 0 11 1
v 1 11 1
v 2 11 1
v -3 11 -0
v -2 11 -0
v 0 11 -0
v 1 11 -0
v 2 11 -0
v 3 11 -0
v -3 11 -1
v -2 11 -1
v -1 11 -1
v 2 11 -1
v 3 11 -1
v -1 11 -2
v 2 11 -2
v 0 12 1
v 1 12 1
v -2 12 -0
v 0 12 -0
v 1 12 -0
v 2 12 -0
v -2 12 -1
v 2 12 -1

# faces
f 4/9/1 2/9/1 1/9/1
f 5/9/1 2/9/1 4/9/1
f 7/9/1 4/9/1 3/9/1
f 7/9/1 6/9/1 5/9/1
f 7/9/1 5/9/1 4/9/1
f 8/9/1 6/9/1 7/9/1
f 9/9/1 7/9/1 3/9/1
f 10/9/1 7/9/1 9/9/1
f 13/1/1 12/1/1 11/1/1
f 14/1/1 12/1/1 13/1/1
f 15/8/1 14/8/1 13/8/1
f 16/8/1 14/8/1 15/8/1
f 18/7/1 16/7/1 15/7/1
f 19/7/1 16/7/1 18/7/1
f 21/9/1 18/9/1 17/9/1
f 22/9/1 18/9/1 21/9/1
f 26/2/1 23/2/1 22/2/1
f 26/9/1 22/9/1 21/9/1
f 26/9/1 21/9/1 20/9/1
f 27/2/1 23/2/1 26/2/1
f 28/9/1 25/9/1 24/9/1
f 29/9/1 25/9/1 28/9/1
f 30/9/1 26/9/1 20/9/1
f 31/9/1 26/9/1 30/9/1
f 34/9/1 26/9/1 31/9/1
f 35/9/1 26/9/1 34/9/1
f 37/9/1 33/9/1 32/9/1
f 38/9/1 33/9/1 37/9/1
f 39/9/1 37/9/1 36/9/1
f 40/9/1 37/9/1 39/9/1
f 43/5/1 42/5/1 41/5/1
f 44/5/1 42/5/1 43/5/1
f 46/4/1 44/4/1 43/4/1
f 47/4/1 44/4/1 46/4/1
f 49/4/1 47/4/1 46/4/1
f 49/4/1 48/4/1 47/4/1
f 49/4/1 46/4/1 45/4/1
f 50/4/1 48/4/1 49/4/1
f 51/4/1 48/4/1 50/4/1
f 52/4/1 48/4/1 51/4/1
f 53/6/1 50/6/1 49/6/1
f 54/6/1 50/6/1 53/6/1
f 55/6/1 52/6/1 51/6/1
f 56/6/1 52/6/1 55/6/1
f 57/8/1 54/8/1 53/8/1
f 58/7/1 56/7/1 55/7/1
f 59/7/1 56/7/1 58/7/1
f 60/8/1 57/8/1 53/8/1
f 61/8/1 57/8/1 60/8/1
f 62/8/1 59/8/1 58/8/1
f 63/8/1 59/8/1 62/8/1
f 65/1/1 63/1/1 62/1/1
f 65/1/1 62/1/1 61/1/1
f 66/1/1 63/1/1 65/1/1
f 67/9/1 64/9/1 63/9/1
f 67/1/1 63/1/1 66/1/1
f 68/9/1 64/9/1 67/9/1
f 72/9/1 71/9/1 70/9/1
f 73/9/1 71/9/1 72/9/1
f 76/9/1 69/9/1 68/9/1
f 77/9/1 69/9/1 76/9/1
f 78/9/1 75/9/1 74/9/1
f 79/9/1 75/9/1 78/9/1
f 81/9/1 80/9/1 79/9/1
f 82/9/1 80/9/1 81/9/1
f 87/9/1 84/9/1 83/9/1
f 88/9/1 84/9/1 87/9/1
f 89/9/1 86/9/1 85/9/1
f 90/9/1 86/9/1 89/9/1
f 93/9/1 92/9/1 91/9/1
f 94/9/1 92/9/1 93/9/1
f 97/5/1 96/5/1 95/5/1
f 98/5/1 96/5/1 97/5/1
f 99/4/1 98/4/1 97/4/1
f 100/4/1 98/4/1 99/4/1
f 103/9/1 102/9/1 101/9/1
f 104/9/1 102/9/1 103/9/1
f 107/9/1 106/9/1 105/9/1
f 108/9/1 106/9/1 107/9/1
f 109/9/2 110/9/2 111/9/2
f 111/9/2 110/9/2 112/9/2
f 113/5/2 114/5/2 115/5/2
f 115/5/2 114/5/2 116/5/2
f 115/4/2 116/4/2 117/4/2
f 117/4/2 116/4/2 118/4/2
f 119/9/2 120/9/2 121/9/2
f 121/9/2 120/9/2 122/9/2
f 123/9/2 124/9/2 125/9/2
f 125/9/2 124/9/2 126/9/2
f 126/9/2 127/9/2 128/9/2
f 128/9/2 127/9/2 129/9/2
f 130/5/2 131/5/2 132/5/2
f 132/5/2 131/5/2 133/5/2
f 132/4/2 133/4/2 135/4/2
f 135/4/2 133/4/2 136/4/2
f 135/4/2 136/4/2 138/4/2
f 136/4/2 137/4/2 138/4/2
f 134/4/2 135/4/2 138/4/2
f 138/4/2 137/4/2 139/4/2
f 139/4/2 137/4/2 140/4/2
f 140/4/2 137/4/2 141/4/2
f 138/6/2 139/6/2 142/6/2
f 142/6/2 139/6/2 143/6/2
f 140/6/2 141/6/2 144/6/2
f 144/6/2 141/6/2 145/6/2
f 142/7/2 143/7/2 146/7/2
f 144/7/2 145/7/2 147/7/2
f 142/7/2 146/7/2 148/7/2
f 148/7/2 146/7/2 149/7/2
f 147/7/2 145/7/2 150/7/2
f 150/7/2 145/7/2 151/7/2
f 150/1/2 151/1/2 153/1/2
f 149/1/2 150/1/2 153/1/2
f 153/1/2 151/1/2 154/1/2
f 151/9/2 152/9/2 155/9/2
f 154/1/2 151/1/2 155/1/2
f 155/9/2 152/9/2 156/9/2
f 158/9/2 159/9/2 160/9/2
f 160/9/2 159/9/2 161/9/2
f 156/9/2 157/9/2 165/9/2
f 165/9/2 157/9/2 166/9/2
f 162/9/2 163/9/2 167/9/2
f 167/9/2 163/9/2 168/9/2
f 164/9/2 165/9/2 169/9/2
f 169/9/2 165/9/2 170/9/2
f 168/9/2 169/9/2 171/9/2
f 171/9/2 169/9/2 172/9/2
f 173/1/2 174/1/2 175/1/2
f 175/1/2 174/1/2 176/1/2
f 175/7/2 176/7/2 177/7/2
f 177/7/2 176/7/2 178/7/2
f 177/8/2 178/8/2 180/8/2
f 180/8/2 178/8/2 181/8/2
f 179/9/2 180/9/2 183/9/2
f 183/9/2 180/9/2 184/9/2
f 184/2/2 185/2/2 188/2/2
f 183/9/2 184/9/2 188/9/2
f 182/9/2 183/9/2 188/9/2
f 188/2/2 185/2/2 189/2/2
f 186/9/2 187/9/2 190/9/2
f 190/9/2 187/9/2 191/9/2
f 182/9/2 188/9/2 192/9/2
f 192/9/2 188/9/2 193/9/2
f 193/9/2 188/9/2 196/9/2
f 196/9/2 188/9/2 197/9/2
f 194/9/2 195/9/2 199/9/2
f 199/9/2 195/9/2 200/9/2
f 198/9/2 199/9/2 201/9/2
f 201/9/2 199/9/2 202/9/2
f 203/9/2 204/9/2 206/9/2
f 206/9/2 204/9/2 207/9/2
f 205/9/2 206/9/2 209/9/2
f 207/9/2 208/9/2 209/9/2
f 206/9/2 207/9/2 209/9/2
f 209/9/2 208/9/2 210/9/2
f 205/9/2 209/9/2 211/9/2
f 211/9/2 209/9/2 212/9/2
f 215/9/3 214/9/3 213/9/3
f 216/9/3 214/9/3 215/9/3
f 217/9/3 214/9/3 216/9/3
f 219/9/3 218/9/3 217/9/3
f 219/9/3 217/9/3 216/9/3
f 220/9/3 218/9/3 219/9/3
f 222/9/3 218/9/3 220/9/3
f 224/9/3 222/9/3 221/9/3
f 225/9/3 218/9/3 222/9/3
f 225/9/3 222/9/3 224/9/3
f 226/9/3 218/9/3 225/9/3
f 227/9/3 224/9/3 223/9/3
f 227/9/3 225/9/3 224/9/3
f 228/9/3 225/9/3 227/9/3
f 236/9/3 230/9/3 229/9/3
f 237/9/3 230/9/3 236/9/3
f 239/9/3 232/9/3 231/9/3
f 240/9/3 232/9/3 239/9/3
f 241/6/3 235/6/3 234/6/3
f 241/8/3 236/8/3 235/8/3
f 242/8/3 236/8/3 241/8/3
f 243/2/3 237/2/3 236/2/3
f 243/8/3 236/8/3 242/8/3
f 244/10/3 238/10/3 237/10/3
f 244/2/3 237/2/3 243/2/3
f 245/10/3 238/10/3 244/10/3
f 248/4/3 234/4/3 233/4/3
f 248/6/3 241/6/3 234/6/3
f 249/7/3 242/7/3 241/7/3
f 249/6/3 241/6/3 248/6/3
f 250/8/3 243/8/3 242/8/3
f 250/7/3 242/7/3 249/7/3
f 251/1/3 244/1/3 243/1/3
f 251/8/3 243/8/3 250/8/3
f 252/2/3 245/2/3 244/2/3
f 252/1/3 244/1/3 251/1/3
f 253/2/3 245/2/3 252/2/3
f 255/3/3 249/3/3 248/3/3
f 255/4/3 248/4/3 233/4/3
f 256/7/3 251/7/3 250/7/3
f 256/3/3 249/3/3 255/3/3
f 256/7/3 250/7/3 249/7/3
f 257/1/3 253/1/3 252/1/3
f 257/1/3 252/1/3 251/1/3
f 258/9/3 254/9/3 253/9/3
f 258/1/3 253/1/3 257/1/3
f 259/9/3 254/9/3 258/9/3
f 260/9/3 247/9/3 246/9/3
f 261/9/3 247/9/3 260/9/3
f 262/4/3 255/4/3 233/4/3
f 263/6/3 256/6/3 255/6/3
f 263/4/3 255/4/3 262/4/3
f 264/7/3 251/7/3 256/7/3
f 264/6/3 256/6/3 263/6/3
f 265/1/3 257/1/3 251/1/3
f 265/7/3 251/7/3 264/7/3
f 266/10/3 258/10/3 257/10/3
f 266/1/3 257/1/3 265/1/3
f 267/10/3 258/10/3 266/10/3
f 270/9/3 266/9/3 265/9/3
f 271/9/3 266/9/3 270/9/3
f 272/9/3 269/9/3 268/9/3
f 273/9/3 269/9/3 272/9/3
f 280/9/3 275/9/3 274/9/3
f 281/9/3 275/9/3 280/9/3
f 285/1/3 277/1/3 276/1/3
f 286/8/3 278/8/3 277/8/3
f 286/1/3 277/1/3 285/1/3
f 287/7/3 279/7/3 278/7/3
f 287/8/3 278/8/3 286/8/3
f 288/7/3 279/7/3 287/7/3
f 291/5/3 283/5/3 282/5/3
f 292/4/3 284/4/3 283/4/3
f 292/5/3 283/5/3 291/5/3
f 293/4/3 284/4/3 292/4/3
f 294/9/3 290/9/3 289/9/3
f 295/9/3 290/9/3 294/9/3
f 302/9/3 297/9/3 296/9/3
f 303/9/3 297/9/3 302/9/3
f 304/5/3 299/5/3 298/5/3
f 305/4/3 300/4/3 299/4/3
f 305/5/3 299/5/3 304/5/3
f 306/4/3 300/4/3 305/4/3
f 311/9/3 302/9/3 301/9/3
f 312/9/3 302/9/3 311/9/3
f 313/1/3 308/1/3 307/1/3
f 314/7/3 309/7/3 308/7/3
f 314/1/3 308/1/3 313/1/3
f 315/8/3 310/8/3 309/8/3
f 315/7/3 309/7/3 314/7/3
f 316/8/3 310/8/3 315/8/3
f 319/9/3 318/9/3 317/9/3
f 320/9/3 318/9/3 319/9/3
f 323/9/3 322/9/3 321/9/3
f 324/9/3 322/9/3 323/9/3
f 327/9/3 326/9/3 325/9/3
f 328/9/3 326/9/3 327/9/3
f 330/9/3 329/9/3 328/9/3
f 331/9/3 329/9/3 330/9/3
f 335/9/3 333/9/3 332/9/3
f 336/9/3 333/9/3 335/9/3
f 339/9/3 335/9/3 334/9/3
f 340/9/3 335/9/3 339/9/3
f 341/9/3 338/9/3 337/9/3
f 342/9/3 338/9/3 341/9/3
f 343/9/4 344/9/4 345/9/4
f 345/9/4 344/9/4 346/9/4
f 347/9/4 348/9/4 349/9/4
f 349/9/4 348/9/4 350/9/4
f 351/1/4 352/1/4 358/1/4
f 352/8/4 353/8/4 359/8/4
f 358/1/4 352/1/4 359/1/4
f 353/7/4 354/7/4 360/7/4
f 359/8/4 353/8/4 360/8/4
f 360/7/4 354/7/4 361/7/4
f 355/5/4 356/5/4 362/5/4
f 356/4/4 357/4/4 363/4/4
f 362/5/4 356/5/4 363/5/4
f 363/4/4 357/4/4 364/4/4
f 365/5/4 366/5/4 368/5/4
f 366/4/4 367/4/4 369/4/4
f 368/5/4 366/5/4 369/5/4
f 369/4/4 367/4/4 370/4/4
f 371/1/4 372/1/4 375/1/4
f 372/7/4 373/7/4 376/7/4
f 375/1/4 372/1/4 376/1/4
f 373/8/4 374/8/4 377/8/4
f 376/7/4 373/7/4 377/7/4
f 377/8/4 374/8/4 378/8/4
f 379/9/4 380/9/4 383/9/4
f 383/9/4 380/9/4 384/9/4
f 381/9/4 382/9/4 385/9/4
f 385/9/4 382/9/4 386/9/4
f 386/9/4 387/9/4 393/9/4
f 389/6/4 390/6/4 395/6/4
f 390/7/4 391/7/4 395/7/4
f 391/8/4 392/8/4 396/8/4
f 395/7/4 391/7/4 396/7/4
f 396/8/4 392/8/4 397/8/4
f 393/9/4 394/9/4 398/9/4
f 386/9/4 393/9/4 398/9/4
f 398/9/4 394/9/4 399/9/4
f 389/6/4 395/6/4 400/6/4
f 395/8/4 396/8/4 400/8/4
f 396/7/4 397/7/4 401/7/4
f 400/8/4 396/8/4 401/8/4
f 388/4/4 389/4/4 402/4/4
f 389/6/4 400/6/4 403/6/4
f 402/4/4 389/4/4 403/4/4
f 400/7/4 401/7/4 404/7/4
f 403/6/4 400/6/4 404/6/4
f 401/7/4 397/7/4 405/7/4
f 404/7/4 401/7/4 405/7/4
f 399/9/4 394/9/4 407/9/4
f 407/9/4 394/9/4 408/9/4
f 406/9/4 407/9/4 412/9/4
f 412/9/4 407/9/4 413/9/4
f 409/9/4 410/9/4 414/9/4
f 414/9/4 410/9/4 415/9/4
f 411/9/4 412/9/4 416/9/4
f 416/9/4 412/9/4 417/9/4
f 418/9/4 419/9/4 421/9/4
f 421/9/4 419/9/4 422/9/4
f 420/9/4 421/9/4 425/9/4
f 422/9/4 423/9/4 425/9/4
f 421/9/4 422/9/4 425/9/4
f 425/9/4 423/9/4 426/9/4
f 424/9/4 425/9/4 429/9/4
f 429/9/4 425/9/4 430/9/4
f 427/9/4 428/9/4 431/9/4
f 431/9/4 428/9/4 432/9/4
f 430/9/4 431/9/4 433/9/4
f 433/9/4 431/9/4 434/9/4
f 434/9/4 431/9/4 435/9/4
f 435/9/4 431/9/4 436/9/4
f 434/9/4 435/9/4 437/9/4
f 437/9/4 435/9/4 438/9/4
f 439/9/4 440/9/4 441/9/4
f 441/9/4 440/9/4 442/9/4
f 447/5/5 444/5/5 443/5/5
f 448/5/5 444/5/5 447/5/5
f 449/5/5 446/5/5 445/5/5
f 450/5/5 446/5/5 449/5/5
f 453/4/5 452/4/5 451/4/5
f 454/4/5 452/4/5 453/4/5
f 455/4/5 452/4/5 454/4/5
f 456/4/5 452/4/5 455/4/5
f 458/4/5 455/4/5 454/4/5
f 459/4/5 455/4/5 458/4/5
f 461/4/5 458/4/5 457/4/5
f 461/4/5 460/4/5 459/4/5
f 461/4/5 459/4/5 458/4/5
f 462/4/5 460/4/5 461/4/5
f 467/1/5 464/1/5 463/1/5
f 468/1/5 464/1/5 467/1/5
f 469/1/5 466/1/5 465/1/5
f 470/1/5 466/1/5 469/1/5
f 475/9/5 472/9/5 471/9/5
f 476/9/5 472/9/5 475/9/5
f 477/9/5 474/9/5 473/9/5
f 478/9/5 474/9/5 477/9/5
f 482/9/5 480/9/5 479/9/5
f 482/9/5 481/9/5 480/9/5
f 483/9/5 481/9/5 482/9/5
f 488/9/5 485/9/5 484/9/5
f 489/9/5 485/9/5 488/9/5
f 490/9/5 487/9/5 486/9/5
f 491/9/5 487/9/5 490/9/5
f 497/2/5 493/2/5 492/2/5
f 498/2/5 493/2/5 497/2/5
f 499/2/5 495/2/5 494/2/5
f 500/2/5 495/2/5 499/2/5
f 502/9/5 498/9/5 497/9/5
f 502/9/5 497/9/5 496/9/5
f 503/9/5 498/9/5 502/9/5
f 504/9/5 498/9/5 503/9/5
f 505/9/5 500/9/5 499/9/5
f 505/9/5 501/9/5 500/9/5
f 506/9/5 501/9/5 505/9/5
f 507/9/5 501/9/5 506/9/5
f 508/9/5 504/9/5 503/9/5
f 509/9/5 504/9/5 508/9/5
f 510/9/5 506/9/5 505/9/5
f 511/9/5 506/9/5 510/9/5
f 512/9/5 510/9/5 509/9/5
f 513/9/5 510/9/5 512/9/5
f 518/9/5 515/9/5 514/9/5
f 519/9/5 515/9/5 518/9/5
f 520/9/5 515/9/5 519/9/5
f 521/9/5 517/9/5 516/9/5
f 522/9/5 517/9/5 521/9/5
f 527/9/5 524/9/5 523/9/5
f 528/9/5 524/9/5 527/9/5
f 529/9/5 526/9/5 525/9/5
f 530/9/5 526/9/5 529/9/5
f 535/9/5 532/9/5 531/9/5
f 536/9/5 532/9/5 535/9/5
f 537/9/5 534/9/5 533/9/5
f 538/9/5 534/9/5 537/9/5
f 541/9/5 540/9/5 539/9/5
f 542/9/5 540/9/5 541/9/5
f 543/7/6 544/7/6 547/7/6
f 547/7/6 544/7/6 548/7/6
f 545/8/6 546/8/6 549/8/6
f 549/8/6 546/8/6 550/8/6
f 551/9/6 552/9/6 555/9/6
f 555/9/6 552/9/6 556/9/6
f 553/9/6 554/9/6 557/9/6
f 557/9/6 554/9/6 558/9/6
f 559/9/6 560/9/6 563/9/6
f 563/9/6 560/9/6 564/9/6
f 561/9/6 562/9/6 565/9/6
f 565/9/6 562/9/6 566/9/6
f 567/9/6 568/9/6 570/9/6
f 570/9/6 568/9/6 571/9/6
f 571/9/6 568/9/6 572/9/6
f 572/9/6 568/9/6 573/9/6
f 569/9/6 570/9/6 576/9/6
f 570/9/6 571/9/6 576/9/6
f 576/9/6 571/9/6 577/9/6
f 577/9/6 571/9/6 578/9/6
f 572/9/6 573/9/6 579/9/6
f 573/9/6 574/9/6 579/9/6
f 579/9/6 574/9/6 580/9/6
f 580/9/6 574/9/6 581/9/6
f 576/9/6 577/9/6 583/9/6
f 575/9/6 576/9/6 583/9/6
f 583/9/6 577/9/6 584/9/6
f 581/9/6 582/9/6 585/9/6
f 580/9/6 581/9/6 585/9/6
f 585/9/6 582/9/6 586/9/6
f 575/9/6 583/9/6 587/9/6
f 587/9/6 583/9/6 588/9/6
f 586/9/6 582/9/6 591/9/6
f 591/9/6 582/9/6 592/9/6
f 588/9/6 589/9/6 593/9/6
f 593/9/6 589/9/6 594/9/6
f 594/9/6 589/9/6 595/9/6
f 590/9/6 591/9/6 596/9/6
f 596/9/6 591/9/6 597/9/6
f 594/9/6 595/9/6 598/9/6
f 595/9/6 596/9/6 598/9/6
f 598/9/6 596/9/6 599/9/6
f 600/9/6 601/9/6 603/9/6
f 603/9/6 601/9/6 604/9/6
f 604/9/6 601/9/6 605/9/6
f 602/9/6 603/9/6 608/9/6
f 603/9/6 604/9/6 608/9/6
f 608/9/6 604/9/6 609/9/6
f 605/9/6 606/9/6 610/9/6
f 610/9/6 606/9/6 611/9/6
f 607/9/6 608/9/6 613/9/6
f 613/9/6 608/9/6 614/9/6
f 611/9/6 612/9/6 616/9/6
f 616/9/6 612/9/6 617/9/6
f 615/9/6 616/9/6 618/9/6
f 618/9/6 616/9/6 619/9/6
f 620/9/6 621/9/6 623/9/6
f 623/9/6 621/9/6 624/9/6
f 622/9/6 623/9/6 626/9/6
f 624/9/6 625/9/6 626/9/6
f 623/9/6 624/9/6 626/9/6
f 626/9/6 625/9/6 627/9/6
